<mxfile host="app.diagrams.net" agent="Mozilla/5.0 (X11; Linux x86_64; rv:134.0) Gecko/20100101 Firefox/134.0" version="26.0.7">
  <diagram name="Page-1" id="kS3h-AUu7yc3aoV2DQm_">
    <mxGraphModel dx="198" dy="319" grid="1" gridSize="10" guides="1" tooltips="1" connect="1" arrows="1" fold="1" page="1" pageScale="1" pageWidth="850" pageHeight="1100" math="0" shadow="0">
      <root>
        <mxCell id="0" />
        <mxCell id="1" parent="0" />
        <mxCell id="L34754Bm_V0Q2IDVi44c-1" value="&lt;div&gt;&lt;font style=&quot;font-size: 18px;&quot;&gt;1&lt;/font&gt;&lt;/div&gt;" style="rounded=0;whiteSpace=wrap;html=1;" vertex="1" parent="1">
          <mxGeometry x="280" y="120" width="40" height="40" as="geometry" />
        </mxCell>
        <mxCell id="L34754Bm_V0Q2IDVi44c-3" value="&lt;div&gt;&lt;font style=&quot;font-size: 18px;&quot;&gt;3&lt;/font&gt;&lt;/div&gt;" style="rounded=0;whiteSpace=wrap;html=1;" vertex="1" parent="1">
          <mxGeometry x="320" y="120" width="40" height="40" as="geometry" />
        </mxCell>
        <mxCell id="L34754Bm_V0Q2IDVi44c-4" value="&lt;div&gt;&lt;font style=&quot;font-size: 18px;&quot;&gt;5&lt;/font&gt;&lt;/div&gt;" style="rounded=0;whiteSpace=wrap;html=1;" vertex="1" parent="1">
          <mxGeometry x="360" y="120" width="40" height="40" as="geometry" />
        </mxCell>
        <mxCell id="L34754Bm_V0Q2IDVi44c-5" value="&lt;div&gt;&lt;font style=&quot;font-size: 18px;&quot;&gt;6&lt;/font&gt;&lt;/div&gt;" style="rounded=0;whiteSpace=wrap;html=1;" vertex="1" parent="1">
          <mxGeometry x="400" y="120" width="40" height="40" as="geometry" />
        </mxCell>
        <mxCell id="L34754Bm_V0Q2IDVi44c-6" value="&lt;div&gt;&lt;font style=&quot;font-size: 18px;&quot;&gt;0&lt;/font&gt;&lt;/div&gt;" style="rounded=0;whiteSpace=wrap;html=1;" vertex="1" parent="1">
          <mxGeometry x="440" y="120" width="40" height="40" as="geometry" />
        </mxCell>
        <mxCell id="L34754Bm_V0Q2IDVi44c-7" value="&lt;div&gt;&lt;font style=&quot;font-size: 18px;&quot;&gt;2&lt;/font&gt;&lt;/div&gt;" style="rounded=0;whiteSpace=wrap;html=1;" vertex="1" parent="1">
          <mxGeometry x="480" y="120" width="40" height="40" as="geometry" />
        </mxCell>
        <mxCell id="L34754Bm_V0Q2IDVi44c-8" value="&lt;div&gt;&lt;font style=&quot;font-size: 18px;&quot;&gt;4&lt;/font&gt;&lt;/div&gt;" style="rounded=0;whiteSpace=wrap;html=1;" vertex="1" parent="1">
          <mxGeometry x="520" y="120" width="40" height="40" as="geometry" />
        </mxCell>
        <mxCell id="L34754Bm_V0Q2IDVi44c-9" value="&lt;div&gt;&lt;font style=&quot;font-size: 18px;&quot;&gt;7&lt;/font&gt;&lt;/div&gt;" style="rounded=0;whiteSpace=wrap;html=1;" vertex="1" parent="1">
          <mxGeometry x="560" y="120" width="40" height="40" as="geometry" />
        </mxCell>
        <mxCell id="L34754Bm_V0Q2IDVi44c-10" value="&lt;div&gt;&lt;font style=&quot;font-size: 18px;&quot;&gt;8&lt;/font&gt;&lt;/div&gt;" style="rounded=0;whiteSpace=wrap;html=1;" vertex="1" parent="1">
          <mxGeometry x="600" y="120" width="40" height="40" as="geometry" />
        </mxCell>
        <mxCell id="L34754Bm_V0Q2IDVi44c-11" value="&lt;div&gt;&lt;font style=&quot;font-size: 18px;&quot;&gt;9&lt;/font&gt;&lt;/div&gt;" style="rounded=0;whiteSpace=wrap;html=1;" vertex="1" parent="1">
          <mxGeometry x="640" y="120" width="40" height="40" as="geometry" />
        </mxCell>
        <mxCell id="L34754Bm_V0Q2IDVi44c-18" value="&lt;font style=&quot;font-size: 18px;&quot;&gt;PageIDs:&lt;/font&gt;" style="text;html=1;align=center;verticalAlign=middle;whiteSpace=wrap;rounded=0;" vertex="1" parent="1">
          <mxGeometry x="180" y="125" width="60" height="30" as="geometry" />
        </mxCell>
        <mxCell id="L34754Bm_V0Q2IDVi44c-20" value="&lt;div&gt;&lt;font style=&quot;font-size: 18px;&quot;&gt;5&lt;/font&gt;&lt;/div&gt;" style="rounded=0;whiteSpace=wrap;html=1;" vertex="1" parent="1">
          <mxGeometry x="280" y="200" width="40" height="40" as="geometry" />
        </mxCell>
        <mxCell id="L34754Bm_V0Q2IDVi44c-21" value="&lt;div&gt;&lt;font style=&quot;font-size: 18px;&quot;&gt;2&lt;/font&gt;&lt;/div&gt;" style="rounded=0;whiteSpace=wrap;html=1;" vertex="1" parent="1">
          <mxGeometry x="320" y="200" width="40" height="40" as="geometry" />
        </mxCell>
        <mxCell id="L34754Bm_V0Q2IDVi44c-22" value="&lt;div&gt;&lt;font style=&quot;font-size: 18px;&quot;&gt;4&lt;/font&gt;&lt;/div&gt;" style="rounded=0;whiteSpace=wrap;html=1;" vertex="1" parent="1">
          <mxGeometry x="360" y="200" width="40" height="40" as="geometry" />
        </mxCell>
        <mxCell id="L34754Bm_V0Q2IDVi44c-23" value="&lt;div&gt;&lt;font style=&quot;font-size: 18px;&quot;&gt;3&lt;/font&gt;&lt;/div&gt;" style="rounded=0;whiteSpace=wrap;html=1;" vertex="1" parent="1">
          <mxGeometry x="400" y="200" width="40" height="40" as="geometry" />
        </mxCell>
        <mxCell id="L34754Bm_V0Q2IDVi44c-24" value="&lt;div&gt;&lt;font style=&quot;font-size: 18px;&quot;&gt;32&lt;/font&gt;&lt;/div&gt;" style="rounded=0;whiteSpace=wrap;html=1;fillColor=light-dark(#DAE8FC,#009999);strokeColor=light-dark(#6C8EBF,#FFFFFF);" vertex="1" parent="1">
          <mxGeometry x="440" y="200" width="40" height="40" as="geometry" />
        </mxCell>
        <mxCell id="L34754Bm_V0Q2IDVi44c-25" value="&lt;div&gt;&lt;font style=&quot;font-size: 18px;&quot;&gt;32&lt;/font&gt;&lt;/div&gt;" style="rounded=0;whiteSpace=wrap;html=1;fillColor=light-dark(#DAE8FC,#009999);strokeColor=light-dark(#6C8EBF,#FFFFFF);" vertex="1" parent="1">
          <mxGeometry x="480" y="200" width="40" height="40" as="geometry" />
        </mxCell>
        <mxCell id="L34754Bm_V0Q2IDVi44c-26" value="&lt;font style=&quot;font-size: 18px;&quot;&gt;32&lt;/font&gt;" style="rounded=0;whiteSpace=wrap;html=1;fillColor=light-dark(#DAE8FC,#009999);strokeColor=light-dark(#6C8EBF,#FFFFFF);" vertex="1" parent="1">
          <mxGeometry x="520" y="200" width="40" height="40" as="geometry" />
        </mxCell>
        <mxCell id="L34754Bm_V0Q2IDVi44c-27" value="&lt;font style=&quot;font-size: 18px;&quot;&gt;64&lt;/font&gt;" style="rounded=0;whiteSpace=wrap;html=1;" vertex="1" parent="1">
          <mxGeometry x="560" y="200" width="40" height="40" as="geometry" />
        </mxCell>
        <mxCell id="L34754Bm_V0Q2IDVi44c-28" value="&lt;font style=&quot;font-size: 18px;&quot;&gt;64&lt;/font&gt;" style="rounded=0;whiteSpace=wrap;html=1;" vertex="1" parent="1">
          <mxGeometry x="600" y="200" width="40" height="40" as="geometry" />
        </mxCell>
        <mxCell id="L34754Bm_V0Q2IDVi44c-29" value="&lt;font style=&quot;font-size: 18px;&quot;&gt;64&lt;/font&gt;" style="rounded=0;whiteSpace=wrap;html=1;" vertex="1" parent="1">
          <mxGeometry x="640" y="200" width="40" height="40" as="geometry" />
        </mxCell>
        <mxCell id="L34754Bm_V0Q2IDVi44c-30" value="&lt;font style=&quot;font-size: 18px;&quot;&gt;TimeUsed:&lt;/font&gt;" style="text;html=1;align=center;verticalAlign=middle;whiteSpace=wrap;rounded=0;" vertex="1" parent="1">
          <mxGeometry x="180" y="205" width="60" height="30" as="geometry" />
        </mxCell>
        <mxCell id="L34754Bm_V0Q2IDVi44c-31" value="" style="rounded=0;whiteSpace=wrap;html=1;fillColor=none;strokeColor=light-dark(#000000,#99FF33);" vertex="1" parent="1">
          <mxGeometry x="280" y="120" width="159" height="40" as="geometry" />
        </mxCell>
        <mxCell id="L34754Bm_V0Q2IDVi44c-32" value="" style="rounded=0;whiteSpace=wrap;html=1;fillColor=none;strokeColor=light-dark(#000000,#FF3333);" vertex="1" parent="1">
          <mxGeometry x="440" y="120" width="240" height="40" as="geometry" />
        </mxCell>
        <mxCell id="L34754Bm_V0Q2IDVi44c-34" value="&lt;font style=&quot;font-size: 18px;&quot;&gt;In-core&lt;/font&gt;" style="text;html=1;align=center;verticalAlign=middle;whiteSpace=wrap;rounded=0;" vertex="1" parent="1">
          <mxGeometry x="320" y="90" width="80.5" height="30" as="geometry" />
        </mxCell>
        <mxCell id="L34754Bm_V0Q2IDVi44c-38" value="&lt;font style=&quot;font-size: 18px;&quot;&gt;Out-of-core&lt;/font&gt;" style="text;html=1;align=center;verticalAlign=middle;whiteSpace=wrap;rounded=0;" vertex="1" parent="1">
          <mxGeometry x="500" y="90" width="120" height="30" as="geometry" />
        </mxCell>
        <mxCell id="L34754Bm_V0Q2IDVi44c-39" value="&lt;div&gt;&lt;font style=&quot;font-size: 18px;&quot;&gt;1&lt;/font&gt;&lt;/div&gt;" style="rounded=0;whiteSpace=wrap;html=1;" vertex="1" parent="1">
          <mxGeometry x="400" y="320" width="40" height="40" as="geometry" />
        </mxCell>
        <mxCell id="L34754Bm_V0Q2IDVi44c-40" value="&lt;div&gt;&lt;font style=&quot;font-size: 18px;&quot;&gt;3&lt;/font&gt;&lt;/div&gt;" style="rounded=0;whiteSpace=wrap;html=1;" vertex="1" parent="1">
          <mxGeometry x="280" y="320" width="40" height="40" as="geometry" />
        </mxCell>
        <mxCell id="L34754Bm_V0Q2IDVi44c-41" value="&lt;div&gt;&lt;font style=&quot;font-size: 18px;&quot;&gt;5&lt;/font&gt;&lt;/div&gt;" style="rounded=0;whiteSpace=wrap;html=1;" vertex="1" parent="1">
          <mxGeometry x="360" y="320" width="40" height="40" as="geometry" />
        </mxCell>
        <mxCell id="L34754Bm_V0Q2IDVi44c-42" value="&lt;div&gt;&lt;font style=&quot;font-size: 18px;&quot;&gt;6&lt;/font&gt;&lt;/div&gt;" style="rounded=0;whiteSpace=wrap;html=1;" vertex="1" parent="1">
          <mxGeometry x="320" y="320" width="40" height="40" as="geometry" />
        </mxCell>
        <mxCell id="L34754Bm_V0Q2IDVi44c-49" value="&lt;font style=&quot;font-size: 18px;&quot;&gt;PageIDs:&lt;/font&gt;" style="text;html=1;align=center;verticalAlign=middle;whiteSpace=wrap;rounded=0;" vertex="1" parent="1">
          <mxGeometry x="180" y="325" width="60" height="30" as="geometry" />
        </mxCell>
        <mxCell id="L34754Bm_V0Q2IDVi44c-50" value="&lt;div&gt;&lt;font style=&quot;font-size: 18px;&quot;&gt;5&lt;/font&gt;&lt;/div&gt;" style="rounded=0;whiteSpace=wrap;html=1;" vertex="1" parent="1">
          <mxGeometry x="400" y="400" width="40" height="40" as="geometry" />
        </mxCell>
        <mxCell id="L34754Bm_V0Q2IDVi44c-51" value="&lt;div&gt;&lt;font style=&quot;font-size: 18px;&quot;&gt;2&lt;/font&gt;&lt;/div&gt;" style="rounded=0;whiteSpace=wrap;html=1;" vertex="1" parent="1">
          <mxGeometry x="280" y="400" width="40" height="40" as="geometry" />
        </mxCell>
        <mxCell id="L34754Bm_V0Q2IDVi44c-52" value="&lt;div&gt;&lt;font style=&quot;font-size: 18px;&quot;&gt;4&lt;/font&gt;&lt;/div&gt;" style="rounded=0;whiteSpace=wrap;html=1;" vertex="1" parent="1">
          <mxGeometry x="360" y="400" width="40" height="40" as="geometry" />
        </mxCell>
        <mxCell id="L34754Bm_V0Q2IDVi44c-53" value="&lt;div&gt;&lt;font style=&quot;font-size: 18px;&quot;&gt;3&lt;/font&gt;&lt;/div&gt;" style="rounded=0;whiteSpace=wrap;html=1;" vertex="1" parent="1">
          <mxGeometry x="320" y="400" width="40" height="40" as="geometry" />
        </mxCell>
        <mxCell id="L34754Bm_V0Q2IDVi44c-66" style="edgeStyle=orthogonalEdgeStyle;rounded=0;orthogonalLoop=1;jettySize=auto;html=1;exitX=0.5;exitY=1;exitDx=0;exitDy=0;entryX=0.5;entryY=1;entryDx=0;entryDy=0;startArrow=classic;startFill=1;" edge="1" parent="1" source="L34754Bm_V0Q2IDVi44c-83" target="L34754Bm_V0Q2IDVi44c-51">
          <mxGeometry relative="1" as="geometry">
            <mxPoint x="460" y="440" as="sourcePoint" />
          </mxGeometry>
        </mxCell>
        <mxCell id="L34754Bm_V0Q2IDVi44c-67" style="edgeStyle=orthogonalEdgeStyle;rounded=0;orthogonalLoop=1;jettySize=auto;html=1;exitX=0.5;exitY=1;exitDx=0;exitDy=0;entryX=0.5;entryY=1;entryDx=0;entryDy=0;startArrow=classic;startFill=1;" edge="1" parent="1" source="L34754Bm_V0Q2IDVi44c-84" target="L34754Bm_V0Q2IDVi44c-53">
          <mxGeometry relative="1" as="geometry">
            <mxPoint x="500" y="440" as="sourcePoint" />
            <Array as="points">
              <mxPoint x="499" y="470" />
              <mxPoint x="341" y="470" />
            </Array>
          </mxGeometry>
        </mxCell>
        <mxCell id="L34754Bm_V0Q2IDVi44c-68" style="edgeStyle=orthogonalEdgeStyle;rounded=0;orthogonalLoop=1;jettySize=auto;html=1;exitX=0.5;exitY=1;exitDx=0;exitDy=0;entryX=0.5;entryY=1;entryDx=0;entryDy=0;startArrow=classic;startFill=1;" edge="1" parent="1" source="L34754Bm_V0Q2IDVi44c-85" target="L34754Bm_V0Q2IDVi44c-52">
          <mxGeometry relative="1" as="geometry">
            <mxPoint x="540" y="440" as="sourcePoint" />
            <Array as="points">
              <mxPoint x="539" y="480" />
              <mxPoint x="381" y="480" />
            </Array>
          </mxGeometry>
        </mxCell>
        <mxCell id="L34754Bm_V0Q2IDVi44c-60" value="&lt;font style=&quot;font-size: 18px;&quot;&gt;TimeUsed:&lt;/font&gt;" style="text;html=1;align=center;verticalAlign=middle;whiteSpace=wrap;rounded=0;" vertex="1" parent="1">
          <mxGeometry x="180" y="405" width="60" height="30" as="geometry" />
        </mxCell>
        <mxCell id="L34754Bm_V0Q2IDVi44c-63" value="&lt;font style=&quot;font-size: 18px;&quot;&gt;In-core&lt;/font&gt;" style="text;html=1;align=center;verticalAlign=middle;whiteSpace=wrap;rounded=0;" vertex="1" parent="1">
          <mxGeometry x="320" y="290" width="80.5" height="30" as="geometry" />
        </mxCell>
        <mxCell id="L34754Bm_V0Q2IDVi44c-64" value="&lt;font style=&quot;font-size: 18px;&quot;&gt;Out-of-core&lt;/font&gt;" style="text;html=1;align=center;verticalAlign=middle;whiteSpace=wrap;rounded=0;" vertex="1" parent="1">
          <mxGeometry x="500" y="290" width="120" height="30" as="geometry" />
        </mxCell>
        <mxCell id="L34754Bm_V0Q2IDVi44c-70" value="&lt;div&gt;&lt;font style=&quot;font-size: 18px;&quot;&gt;0&lt;/font&gt;&lt;/div&gt;" style="rounded=0;whiteSpace=wrap;html=1;" vertex="1" parent="1">
          <mxGeometry x="440" y="320" width="40" height="40" as="geometry" />
        </mxCell>
        <mxCell id="L34754Bm_V0Q2IDVi44c-71" value="&lt;div&gt;&lt;font style=&quot;font-size: 18px;&quot;&gt;2&lt;/font&gt;&lt;/div&gt;" style="rounded=0;whiteSpace=wrap;html=1;" vertex="1" parent="1">
          <mxGeometry x="480" y="320" width="40" height="40" as="geometry" />
        </mxCell>
        <mxCell id="L34754Bm_V0Q2IDVi44c-72" value="&lt;div&gt;&lt;font style=&quot;font-size: 18px;&quot;&gt;4&lt;/font&gt;&lt;/div&gt;" style="rounded=0;whiteSpace=wrap;html=1;" vertex="1" parent="1">
          <mxGeometry x="520" y="320" width="40" height="40" as="geometry" />
        </mxCell>
        <mxCell id="L34754Bm_V0Q2IDVi44c-73" value="&lt;div&gt;&lt;font style=&quot;font-size: 18px;&quot;&gt;7&lt;/font&gt;&lt;/div&gt;" style="rounded=0;whiteSpace=wrap;html=1;" vertex="1" parent="1">
          <mxGeometry x="560" y="320" width="40" height="40" as="geometry" />
        </mxCell>
        <mxCell id="L34754Bm_V0Q2IDVi44c-74" value="&lt;div&gt;&lt;font style=&quot;font-size: 18px;&quot;&gt;8&lt;/font&gt;&lt;/div&gt;" style="rounded=0;whiteSpace=wrap;html=1;" vertex="1" parent="1">
          <mxGeometry x="600" y="320" width="40" height="40" as="geometry" />
        </mxCell>
        <mxCell id="L34754Bm_V0Q2IDVi44c-75" value="&lt;div&gt;&lt;font style=&quot;font-size: 18px;&quot;&gt;9&lt;/font&gt;&lt;/div&gt;" style="rounded=0;whiteSpace=wrap;html=1;" vertex="1" parent="1">
          <mxGeometry x="640" y="320" width="40" height="40" as="geometry" />
        </mxCell>
        <mxCell id="L34754Bm_V0Q2IDVi44c-79" value="&lt;font style=&quot;font-size: 18px;&quot;&gt;64&lt;/font&gt;" style="rounded=0;whiteSpace=wrap;html=1;" vertex="1" parent="1">
          <mxGeometry x="560" y="400" width="40" height="40" as="geometry" />
        </mxCell>
        <mxCell id="L34754Bm_V0Q2IDVi44c-80" value="&lt;font style=&quot;font-size: 18px;&quot;&gt;64&lt;/font&gt;" style="rounded=0;whiteSpace=wrap;html=1;" vertex="1" parent="1">
          <mxGeometry x="600" y="400" width="40" height="40" as="geometry" />
        </mxCell>
        <mxCell id="L34754Bm_V0Q2IDVi44c-81" value="&lt;font style=&quot;font-size: 18px;&quot;&gt;64&lt;/font&gt;" style="rounded=0;whiteSpace=wrap;html=1;" vertex="1" parent="1">
          <mxGeometry x="640" y="400" width="40" height="40" as="geometry" />
        </mxCell>
        <mxCell id="L34754Bm_V0Q2IDVi44c-83" value="&lt;div&gt;&lt;font style=&quot;font-size: 18px;&quot;&gt;32&lt;/font&gt;&lt;/div&gt;" style="rounded=0;whiteSpace=wrap;html=1;fillColor=light-dark(#DAE8FC,#009999);strokeColor=light-dark(#6C8EBF,#FFFFFF);" vertex="1" parent="1">
          <mxGeometry x="440" y="400" width="40" height="40" as="geometry" />
        </mxCell>
        <mxCell id="L34754Bm_V0Q2IDVi44c-84" value="&lt;div&gt;&lt;font style=&quot;font-size: 18px;&quot;&gt;32&lt;/font&gt;&lt;/div&gt;" style="rounded=0;whiteSpace=wrap;html=1;fillColor=light-dark(#DAE8FC,#009999);strokeColor=light-dark(#6C8EBF,#FFFFFF);" vertex="1" parent="1">
          <mxGeometry x="480" y="400" width="40" height="40" as="geometry" />
        </mxCell>
        <mxCell id="L34754Bm_V0Q2IDVi44c-85" value="&lt;font style=&quot;font-size: 18px;&quot;&gt;32&lt;/font&gt;" style="rounded=0;whiteSpace=wrap;html=1;fillColor=light-dark(#DAE8FC,#009999);strokeColor=light-dark(#6C8EBF,#FFFFFF);" vertex="1" parent="1">
          <mxGeometry x="520" y="400" width="40" height="40" as="geometry" />
        </mxCell>
        <mxCell id="L34754Bm_V0Q2IDVi44c-88" value="&lt;div&gt;&lt;font style=&quot;font-size: 18px;&quot;&gt;1&lt;/font&gt;&lt;/div&gt;" style="rounded=0;whiteSpace=wrap;html=1;" vertex="1" parent="1">
          <mxGeometry x="400" y="560" width="40" height="40" as="geometry" />
        </mxCell>
        <mxCell id="L34754Bm_V0Q2IDVi44c-89" value="&lt;div&gt;&lt;font style=&quot;font-size: 18px;&quot;&gt;3&lt;/font&gt;&lt;/div&gt;" style="rounded=0;whiteSpace=wrap;html=1;" vertex="1" parent="1">
          <mxGeometry x="440" y="560" width="40" height="40" as="geometry" />
        </mxCell>
        <mxCell id="L34754Bm_V0Q2IDVi44c-90" value="&lt;div&gt;&lt;font style=&quot;font-size: 18px;&quot;&gt;5&lt;/font&gt;&lt;/div&gt;" style="rounded=0;whiteSpace=wrap;html=1;" vertex="1" parent="1">
          <mxGeometry x="520" y="560" width="40" height="40" as="geometry" />
        </mxCell>
        <mxCell id="L34754Bm_V0Q2IDVi44c-91" value="&lt;div&gt;&lt;font style=&quot;font-size: 18px;&quot;&gt;6&lt;/font&gt;&lt;/div&gt;" style="rounded=0;whiteSpace=wrap;html=1;" vertex="1" parent="1">
          <mxGeometry x="480" y="560" width="40" height="40" as="geometry" />
        </mxCell>
        <mxCell id="L34754Bm_V0Q2IDVi44c-92" value="&lt;font style=&quot;font-size: 18px;&quot;&gt;PageIDs:&lt;/font&gt;" style="text;html=1;align=center;verticalAlign=middle;whiteSpace=wrap;rounded=0;" vertex="1" parent="1">
          <mxGeometry x="180" y="565" width="60" height="30" as="geometry" />
        </mxCell>
        <mxCell id="L34754Bm_V0Q2IDVi44c-93" value="&lt;div&gt;&lt;font style=&quot;font-size: 18px;&quot;&gt;5&lt;/font&gt;&lt;/div&gt;" style="rounded=0;whiteSpace=wrap;html=1;" vertex="1" parent="1">
          <mxGeometry x="400" y="640" width="40" height="40" as="geometry" />
        </mxCell>
        <mxCell id="L34754Bm_V0Q2IDVi44c-94" value="&lt;div&gt;&lt;font style=&quot;font-size: 18px;&quot;&gt;2&lt;/font&gt;&lt;/div&gt;" style="rounded=0;whiteSpace=wrap;html=1;" vertex="1" parent="1">
          <mxGeometry x="440" y="640" width="40" height="40" as="geometry" />
        </mxCell>
        <mxCell id="L34754Bm_V0Q2IDVi44c-95" value="&lt;div&gt;&lt;font style=&quot;font-size: 18px;&quot;&gt;4&lt;/font&gt;&lt;/div&gt;" style="rounded=0;whiteSpace=wrap;html=1;" vertex="1" parent="1">
          <mxGeometry x="520" y="640" width="40" height="40" as="geometry" />
        </mxCell>
        <mxCell id="L34754Bm_V0Q2IDVi44c-96" value="&lt;div&gt;&lt;font style=&quot;font-size: 18px;&quot;&gt;3&lt;/font&gt;&lt;/div&gt;" style="rounded=0;whiteSpace=wrap;html=1;" vertex="1" parent="1">
          <mxGeometry x="480" y="640" width="40" height="40" as="geometry" />
        </mxCell>
        <mxCell id="L34754Bm_V0Q2IDVi44c-99" value="&lt;font style=&quot;font-size: 18px;&quot;&gt;TimeUsed:&lt;/font&gt;" style="text;html=1;align=center;verticalAlign=middle;whiteSpace=wrap;rounded=0;" vertex="1" parent="1">
          <mxGeometry x="180" y="645" width="60" height="30" as="geometry" />
        </mxCell>
        <mxCell id="L34754Bm_V0Q2IDVi44c-100" value="&lt;font style=&quot;font-size: 18px;&quot;&gt;In-core&lt;/font&gt;" style="text;html=1;align=center;verticalAlign=middle;whiteSpace=wrap;rounded=0;" vertex="1" parent="1">
          <mxGeometry x="320" y="530" width="80.5" height="30" as="geometry" />
        </mxCell>
        <mxCell id="L34754Bm_V0Q2IDVi44c-101" value="&lt;font style=&quot;font-size: 18px;&quot;&gt;Out-of-core&lt;/font&gt;" style="text;html=1;align=center;verticalAlign=middle;whiteSpace=wrap;rounded=0;" vertex="1" parent="1">
          <mxGeometry x="500" y="530" width="120" height="30" as="geometry" />
        </mxCell>
        <mxCell id="L34754Bm_V0Q2IDVi44c-103" value="&lt;div&gt;&lt;font style=&quot;font-size: 18px;&quot;&gt;0&lt;/font&gt;&lt;/div&gt;" style="rounded=0;whiteSpace=wrap;html=1;" vertex="1" parent="1">
          <mxGeometry x="280" y="560" width="40" height="40" as="geometry" />
        </mxCell>
        <mxCell id="L34754Bm_V0Q2IDVi44c-104" value="&lt;div&gt;&lt;font style=&quot;font-size: 18px;&quot;&gt;2&lt;/font&gt;&lt;/div&gt;" style="rounded=0;whiteSpace=wrap;html=1;" vertex="1" parent="1">
          <mxGeometry x="320" y="560" width="40" height="40" as="geometry" />
        </mxCell>
        <mxCell id="L34754Bm_V0Q2IDVi44c-105" value="&lt;div&gt;&lt;font style=&quot;font-size: 18px;&quot;&gt;4&lt;/font&gt;&lt;/div&gt;" style="rounded=0;whiteSpace=wrap;html=1;" vertex="1" parent="1">
          <mxGeometry x="360" y="560" width="40" height="40" as="geometry" />
        </mxCell>
        <mxCell id="L34754Bm_V0Q2IDVi44c-106" value="&lt;div&gt;&lt;font style=&quot;font-size: 18px;&quot;&gt;7&lt;/font&gt;&lt;/div&gt;" style="rounded=0;whiteSpace=wrap;html=1;" vertex="1" parent="1">
          <mxGeometry x="560" y="560" width="40" height="40" as="geometry" />
        </mxCell>
        <mxCell id="L34754Bm_V0Q2IDVi44c-107" value="&lt;div&gt;&lt;font style=&quot;font-size: 18px;&quot;&gt;8&lt;/font&gt;&lt;/div&gt;" style="rounded=0;whiteSpace=wrap;html=1;" vertex="1" parent="1">
          <mxGeometry x="600" y="560" width="40" height="40" as="geometry" />
        </mxCell>
        <mxCell id="L34754Bm_V0Q2IDVi44c-108" value="&lt;div&gt;&lt;font style=&quot;font-size: 18px;&quot;&gt;9&lt;/font&gt;&lt;/div&gt;" style="rounded=0;whiteSpace=wrap;html=1;" vertex="1" parent="1">
          <mxGeometry x="640" y="560" width="40" height="40" as="geometry" />
        </mxCell>
        <mxCell id="L34754Bm_V0Q2IDVi44c-109" value="&lt;font style=&quot;font-size: 18px;&quot;&gt;64&lt;/font&gt;" style="rounded=0;whiteSpace=wrap;html=1;" vertex="1" parent="1">
          <mxGeometry x="560" y="640" width="40" height="40" as="geometry" />
        </mxCell>
        <mxCell id="L34754Bm_V0Q2IDVi44c-110" value="&lt;font style=&quot;font-size: 18px;&quot;&gt;64&lt;/font&gt;" style="rounded=0;whiteSpace=wrap;html=1;" vertex="1" parent="1">
          <mxGeometry x="600" y="640" width="40" height="40" as="geometry" />
        </mxCell>
        <mxCell id="L34754Bm_V0Q2IDVi44c-111" value="&lt;font style=&quot;font-size: 18px;&quot;&gt;64&lt;/font&gt;" style="rounded=0;whiteSpace=wrap;html=1;" vertex="1" parent="1">
          <mxGeometry x="640" y="640" width="40" height="40" as="geometry" />
        </mxCell>
        <mxCell id="L34754Bm_V0Q2IDVi44c-113" value="&lt;div&gt;&lt;font style=&quot;font-size: 18px;&quot;&gt;32&lt;/font&gt;&lt;/div&gt;" style="rounded=0;whiteSpace=wrap;html=1;" vertex="1" parent="1">
          <mxGeometry x="280" y="640" width="40" height="40" as="geometry" />
        </mxCell>
        <mxCell id="L34754Bm_V0Q2IDVi44c-114" value="&lt;div&gt;&lt;font style=&quot;font-size: 18px;&quot;&gt;32&lt;/font&gt;&lt;/div&gt;" style="rounded=0;whiteSpace=wrap;html=1;" vertex="1" parent="1">
          <mxGeometry x="320" y="640" width="40" height="40" as="geometry" />
        </mxCell>
        <mxCell id="L34754Bm_V0Q2IDVi44c-115" value="&lt;font style=&quot;font-size: 18px;&quot;&gt;32&lt;/font&gt;" style="rounded=0;whiteSpace=wrap;html=1;" vertex="1" parent="1">
          <mxGeometry x="360" y="640" width="40" height="40" as="geometry" />
        </mxCell>
        <mxCell id="L34754Bm_V0Q2IDVi44c-124" value="" style="rounded=0;whiteSpace=wrap;html=1;fillColor=none;strokeColor=light-dark(#000000,#99FF33);" vertex="1" parent="1">
          <mxGeometry x="280" y="320" width="159" height="40" as="geometry" />
        </mxCell>
        <mxCell id="L34754Bm_V0Q2IDVi44c-125" value="" style="rounded=0;whiteSpace=wrap;html=1;fillColor=none;strokeColor=light-dark(#000000,#FF3333);" vertex="1" parent="1">
          <mxGeometry x="440" y="320" width="240" height="40" as="geometry" />
        </mxCell>
        <mxCell id="L34754Bm_V0Q2IDVi44c-128" value="" style="rounded=0;whiteSpace=wrap;html=1;fillColor=none;strokeColor=light-dark(#000000,#99FF33);" vertex="1" parent="1">
          <mxGeometry x="280" y="560" width="159" height="40" as="geometry" />
        </mxCell>
        <mxCell id="L34754Bm_V0Q2IDVi44c-129" value="" style="rounded=0;whiteSpace=wrap;html=1;fillColor=none;strokeColor=light-dark(#000000,#FF3333);" vertex="1" parent="1">
          <mxGeometry x="440" y="560" width="240" height="40" as="geometry" />
        </mxCell>
      </root>
    </mxGraphModel>
  </diagram>
</mxfile>
